# xmcd CD database file
#
# Track frame offsets:
#	150
#	22652
#	39605
#	71309
#	86911
#	112563
#	137616
#	160568
#	189134
#	214036
#
# Disc length: 3001 seconds
#
# Revision: 0
# Processed by: cddbd v1.5.2PL0 Copyright (c) Steve Scherf et al.
# Submitted via: CDex 1.51
#
DISCID=6c0bb70a
DTITLE=Matthias Anton Quartett - Calling a friend
DYEAR=2004
DGENRE=Jazz
TTITLE0=Old friend
TTITLE1=Little song
TTITLE2=Kathi
TTITLE3=Mattdogs' dance
TTITLE4=Desire
TTITLE5=Mama
TTITLE6=Spirit of nature
TTITLE7=Giant John
TTITLE8=Calling
TTITLE9=Vision
EXTD=YEAR: 2004
EXTT0=
EXTT1=
EXTT2=
EXTT3=
EXTT4=
EXTT5=
EXTT6=
EXTT7=
EXTT8=
EXTT9=
PLAYORDER=
